<svg xmlns="http://www.w3.org/2000/svg" width="375" viewBox="0 0 375 375" height="375" version="1.0"><g fill="#FF1616"><g><g><path d="M 114.539062 -37.867188 C 114.226562 -37.867188 112.976562 -36.617188 110.785156 -33.800781 C 108.59375 -30.980469 106.089844 -27.851562 103.273438 -24.410156 C 100.457031 -20.96875 97.640625 -17.839844 94.824219 -14.707031 C 92.007812 -11.578125 90.128906 -9.703125 89.191406 -9.074219 C 89.191406 -9.386719 89.191406 -9.703125 89.503906 -10.015625 C 89.816406 -10.328125 89.816406 -10.640625 89.816406 -10.953125 C 89.816406 -14.394531 89.503906 -17.210938 88.878906 -19.402344 C 88.253906 -21.59375 87.3125 -23.472656 86.0625 -25.035156 C 84.808594 -26.601562 83.558594 -28.164062 82.304688 -29.730469 C 81.054688 -31.296875 79.804688 -33.171875 78.550781 -35.363281 C 78.550781 -35.675781 77.300781 -36.929688 75.109375 -39.117188 C 72.917969 -41.308594 70.414062 -43.5 67.910156 -46.003906 C 65.40625 -48.507812 62.902344 -50.699219 60.710938 -52.890625 C 58.523438 -55.078125 57.269531 -56.332031 57.269531 -56.644531 C 57.269531 -56.957031 57.269531 -56.957031 57.582031 -56.957031 C 57.582031 -56.332031 57.894531 -55.394531 58.523438 -54.453125 C 59.148438 -53.515625 59.773438 -52.574219 60.085938 -51.949219 C 59.773438 -52.261719 59.148438 -53.203125 58.210938 -54.765625 C 57.269531 -56.332031 56.644531 -57.582031 56.644531 -58.523438 L 57.269531 -58.835938 C 56.957031 -59.460938 56.644531 -60.085938 56.332031 -60.710938 C 56.019531 -61.339844 55.707031 -61.964844 55.394531 -62.589844 C 55.394531 -65.40625 55.707031 -68.222656 56.644531 -71.039062 C 57.582031 -73.855469 58.835938 -76.359375 60.398438 -78.550781 C 61.964844 -80.742188 63.53125 -82.621094 65.40625 -83.871094 C 67.285156 -85.125 68.847656 -85.75 70.414062 -85.75 C 71.351562 -85.75 72.292969 -85.75 73.230469 -85.4375 C 74.167969 -85.125 75.109375 -85.125 76.046875 -85.125 C 77.613281 -85.125 78.863281 -85.4375 79.804688 -86.0625 C 80.742188 -86.6875 81.054688 -87.3125 81.054688 -87.941406 C 81.054688 -90.757812 79.488281 -93.261719 76.046875 -95.449219 C 72.605469 -97.640625 69.476562 -98.578125 66.660156 -98.578125 C 59.460938 -98.578125 52.261719 -94.824219 45.066406 -87.3125 C 37.867188 -79.804688 29.730469 -67.910156 20.65625 -51.949219 C 17.210938 -46.003906 14.082031 -40.996094 11.578125 -37.242188 C 9.074219 -33.484375 6.886719 -30.667969 5.320312 -28.480469 C 3.128906 -26.289062 1.25 -24.097656 -0.3125 -22.21875 C -1.566406 -20.65625 -2.816406 -19.089844 -3.753906 -17.523438 C -4.695312 -15.960938 -5.320312 -15.023438 -5.320312 -14.707031 C -5.320312 -14.394531 -5.007812 -14.082031 -4.695312 -13.769531 C -4.382812 -13.457031 -4.070312 -13.457031 -3.753906 -13.457031 C -3.128906 -13.457031 -2.191406 -13.769531 -1.25 -14.707031 C -0.3125 -15.648438 0.625 -16.585938 1.878906 -17.839844 C 3.128906 -19.089844 4.382812 -20.34375 5.632812 -21.59375 C 6.886719 -22.84375 7.824219 -23.785156 8.449219 -24.410156 C 13.144531 -29.730469 17.839844 -36.300781 22.53125 -44.125 C 27.226562 -51.949219 33.484375 -59.773438 41.308594 -67.597656 C 40.996094 -66.660156 40.996094 -65.09375 40.996094 -62.902344 C 40.996094 -57.894531 41.621094 -53.515625 42.5625 -50.074219 C 43.5 -46.628906 44.4375 -43.5 45.691406 -40.996094 C 46.941406 -38.492188 47.882812 -36.300781 48.820312 -34.425781 C 49.757812 -32.546875 50.386719 -30.355469 50.386719 -28.164062 C 50.386719 -22.84375 49.445312 -17.523438 47.882812 -12.207031 C 46.316406 -6.886719 44.753906 -2.191406 43.5 1.878906 C 40.371094 1.566406 36.617188 1.25 32.546875 0.9375 C 28.480469 0.625 25.035156 -0.3125 22.21875 -1.878906 C 19.402344 -3.441406 16.585938 -4.382812 13.769531 -4.382812 C 11.890625 -4.382812 10.328125 -3.753906 9.074219 -2.816406 C 7.824219 -1.878906 7.199219 -0.625 7.199219 0.9375 C 7.199219 1.566406 7.511719 2.503906 7.824219 3.753906 C 7.824219 4.070312 7.824219 4.382812 7.824219 4.695312 C 7.824219 5.007812 7.824219 5.320312 7.824219 5.632812 C 7.824219 8.449219 8.449219 10.953125 10.015625 13.457031 C 11.578125 15.960938 13.457031 18.152344 15.648438 20.027344 C 17.839844 21.90625 20.027344 23.472656 22.21875 24.722656 C 24.410156 25.976562 26.289062 26.601562 27.851562 26.601562 C 34.425781 30.042969 40.683594 31.609375 46.628906 31.609375 C 52.574219 31.609375 58.210938 30.042969 63.53125 27.226562 C 68.847656 24.410156 72.605469 20.65625 74.796875 15.960938 C 76.359375 15.960938 77.613281 15.023438 78.550781 13.144531 C 78.238281 13.144531 77.925781 13.144531 77.613281 13.457031 C 77.613281 13.144531 77.613281 12.832031 77.300781 12.519531 C 78.863281 11.578125 79.804688 10.640625 79.804688 9.703125 C 79.804688 9.386719 79.804688 9.074219 79.488281 8.761719 C 82.304688 5.945312 83.871094 4.070312 84.183594 3.128906 C 84.496094 2.191406 84.496094 0.9375 84.496094 -0.625 C 92.945312 -6.570312 101.398438 -16.273438 109.535156 -29.730469 C 111.097656 -31.921875 111.722656 -33.800781 111.722656 -35.363281 C 111.722656 -36.617188 111.410156 -37.242188 110.785156 -37.242188 Z M 32.546875 12.207031 C 29.105469 13.769531 25.976562 14.394531 23.160156 14.394531 C 20.96875 12.519531 18.777344 9.703125 16.273438 6.257812 L 17.210938 5.007812 C 23.160156 7.511719 29.730469 9.074219 36.617188 9.703125 C 35.988281 10.015625 35.363281 10.640625 34.738281 11.265625 C 34.113281 11.890625 33.484375 12.207031 32.546875 12.519531 Z M 61.027344 -45.691406 L 59.148438 -48.507812 C 60.710938 -46.941406 62.277344 -45.066406 63.84375 -43.1875 C 65.40625 -41.308594 66.972656 -39.433594 68.535156 -37.867188 C 67.285156 -39.117188 66.03125 -40.371094 64.78125 -41.621094 C 63.53125 -42.875 62.277344 -44.125 61.339844 -45.066406 Z M 61.027344 -45.691406" transform="translate(19.913 251.455)"/></g></g></g><g fill="#FF1616"><g><g><path d="M 45.691406 -3.441406 C 46.003906 -3.753906 46.003906 -4.070312 46.003906 -4.382812 C 46.003906 -4.695312 46.003906 -5.007812 46.316406 -5.320312 C 46.628906 -5.632812 48.820312 -7.199219 52.890625 -9.703125 C 56.957031 -12.207031 61.964844 -16.898438 68.222656 -23.785156 C 67.910156 -23.785156 68.222656 -24.097656 69.164062 -24.722656 C 70.101562 -25.347656 71.351562 -26.289062 72.917969 -27.539062 C 74.484375 -28.792969 76.046875 -30.042969 77.613281 -31.609375 C 79.175781 -33.171875 80.429688 -34.738281 81.367188 -36.300781 C 81.679688 -36.300781 81.679688 -36.300781 81.679688 -36.300781 C 81.679688 -36.300781 81.679688 -36.300781 81.992188 -36.300781 L 82.621094 -37.554688 L 83.246094 -38.804688 C 83.558594 -39.746094 84.496094 -41.621094 86.0625 -44.4375 C 87.625 -47.253906 89.191406 -49.132812 90.757812 -50.074219 C 91.382812 -50.386719 92.007812 -51.324219 92.945312 -52.574219 C 93.886719 -53.828125 94.824219 -55.078125 95.761719 -56.332031 C 96.703125 -57.582031 97.640625 -58.835938 98.578125 -59.773438 C 99.519531 -60.710938 100.457031 -61.339844 101.082031 -61.339844 L 101.398438 -61.339844 C 102.023438 -61.339844 102.648438 -61.964844 103.273438 -62.902344 C 103.898438 -63.84375 104.214844 -64.78125 104.527344 -65.40625 C 104.214844 -65.09375 104.527344 -65.40625 105.152344 -66.03125 C 105.777344 -66.660156 106.71875 -67.597656 107.96875 -68.847656 C 109.21875 -70.101562 110.160156 -71.351562 111.097656 -72.917969 C 112.035156 -74.484375 112.664062 -76.046875 112.976562 -77.613281 C 112.976562 -77.925781 112.976562 -77.925781 113.289062 -77.613281 C 113.601562 -77.300781 113.601562 -76.984375 113.601562 -76.671875 C 114.539062 -76.984375 115.167969 -77.300781 115.480469 -77.613281 C 115.792969 -77.925781 116.105469 -78.550781 116.417969 -79.175781 C 116.730469 -79.804688 117.042969 -81.054688 117.355469 -82.621094 C 117.671875 -84.183594 118.609375 -86.375 120.171875 -89.191406 C 119.859375 -89.191406 119.546875 -89.191406 119.234375 -89.503906 C 118.921875 -88.878906 118.296875 -87.625 117.355469 -85.75 C 116.417969 -83.871094 115.792969 -82.933594 115.480469 -82.933594 C 115.480469 -83.871094 115.792969 -85.4375 116.730469 -87.3125 C 117.671875 -89.191406 118.296875 -90.757812 118.609375 -91.695312 C 117.042969 -89.816406 115.792969 -87.625 114.539062 -85.4375 C 113.289062 -83.246094 112.035156 -81.054688 110.785156 -78.863281 L 110.472656 -79.175781 C 110.785156 -80.117188 111.097656 -80.742188 111.410156 -81.367188 C 111.722656 -81.992188 112.035156 -82.621094 112.351562 -83.558594 C 112.035156 -83.246094 112.035156 -83.558594 112.664062 -84.496094 L 114.539062 -88.253906 C 115.167969 -89.816406 115.792969 -91.070312 116.417969 -92.320312 C 117.042969 -93.574219 117.355469 -94.199219 117.671875 -94.199219 C 117.671875 -94.511719 117.671875 -94.824219 117.355469 -95.136719 L 118.609375 -95.136719 C 118.609375 -95.449219 118.609375 -95.449219 118.609375 -95.449219 C 118.609375 -95.449219 118.609375 -95.449219 118.609375 -95.761719 C 118.609375 -96.703125 118.921875 -97.328125 119.859375 -97.640625 C 119.859375 -97.328125 119.859375 -97.015625 119.859375 -97.015625 C 119.859375 -97.015625 119.859375 -96.703125 119.859375 -96.390625 C 120.171875 -96.703125 120.488281 -97.015625 120.800781 -97.328125 C 121.113281 -97.640625 121.425781 -97.953125 121.738281 -98.265625 C 120.488281 -97.953125 119.859375 -97.640625 119.546875 -97.640625 L 119.546875 -98.265625 C 119.546875 -98.578125 119.546875 -98.894531 119.859375 -99.207031 C 119.546875 -99.519531 119.546875 -99.832031 119.546875 -100.144531 C 119.546875 -100.457031 119.859375 -100.769531 120.488281 -101.082031 C 121.113281 -101.398438 121.425781 -101.710938 121.425781 -102.023438 C 121.425781 -102.335938 121.113281 -102.648438 120.800781 -102.960938 C 121.113281 -104.214844 121.425781 -105.152344 121.738281 -105.464844 C 121.425781 -105.777344 121.113281 -105.777344 120.800781 -105.777344 C 120.171875 -104.839844 119.546875 -103.898438 118.921875 -102.960938 C 118.296875 -102.023438 117.984375 -101.082031 117.984375 -100.457031 C 117.984375 -100.144531 117.984375 -99.832031 118.296875 -99.519531 C 118.296875 -99.207031 117.984375 -98.894531 117.355469 -98.894531 C 116.730469 -98.894531 116.417969 -98.578125 116.730469 -98.265625 C 116.417969 -97.953125 116.105469 -97.015625 115.480469 -95.449219 C 114.855469 -93.886719 113.914062 -92.945312 112.976562 -92.632812 C 113.289062 -92.320312 113.601562 -92.007812 113.914062 -92.007812 C 114.226562 -92.007812 114.226562 -91.695312 113.914062 -91.382812 C 113.289062 -91.382812 112.664062 -91.382812 112.351562 -91.695312 C 112.035156 -91.382812 112.035156 -91.070312 112.035156 -90.757812 C 112.035156 -90.441406 112.035156 -90.128906 111.722656 -90.128906 C 111.410156 -90.128906 111.097656 -90.128906 110.785156 -90.441406 C 110.472656 -90.128906 110.160156 -89.816406 109.847656 -89.503906 C 109.535156 -89.191406 109.21875 -88.878906 108.90625 -88.566406 C 108.59375 -87.625 107.96875 -86.0625 106.71875 -84.183594 C 105.464844 -82.304688 104.214844 -80.429688 102.648438 -78.550781 C 101.082031 -76.671875 99.519531 -74.484375 97.953125 -72.292969 C 96.390625 -70.101562 94.824219 -68.222656 93.574219 -66.347656 L 91.695312 -62.902344 C 90.441406 -60.710938 88.878906 -58.210938 87.3125 -55.394531 C 85.75 -52.574219 84.183594 -50.074219 82.621094 -47.570312 C 81.054688 -45.066406 79.804688 -43.8125 79.175781 -43.8125 C 76.359375 -40.371094 73.542969 -37.554688 71.039062 -35.050781 C 68.535156 -32.546875 66.347656 -30.042969 64.15625 -27.851562 C 61.964844 -25.660156 59.773438 -23.785156 57.582031 -21.90625 C 55.394531 -20.027344 52.890625 -18.152344 50.386719 -16.273438 L 50.386719 -17.210938 C 49.757812 -16.273438 49.445312 -15.960938 49.132812 -15.960938 C 48.820312 -15.960938 48.195312 -16.585938 47.253906 -17.523438 C 47.570312 -18.464844 47.882812 -19.402344 48.507812 -20.34375 C 50.074219 -20.34375 50.699219 -19.714844 50.699219 -18.777344 L 51.324219 -19.402344 L 51.636719 -19.402344 C 51.949219 -19.402344 52.261719 -19.402344 52.261719 -19.714844 C 52.261719 -21.28125 51.636719 -21.90625 50.699219 -21.59375 C 49.757812 -21.28125 49.132812 -21.59375 49.132812 -22.53125 C 49.132812 -23.160156 49.132812 -23.785156 49.132812 -24.410156 C 49.132812 -25.035156 49.132812 -25.660156 49.132812 -26.601562 C 48.820312 -27.226562 48.820312 -28.164062 48.820312 -29.417969 C 48.820312 -31.609375 49.757812 -33.800781 51.636719 -35.988281 C 53.515625 -38.179688 54.453125 -40.996094 54.453125 -44.4375 L 54.140625 -45.066406 C 54.765625 -47.253906 55.707031 -49.132812 56.957031 -50.699219 C 58.210938 -52.261719 59.148438 -54.140625 60.085938 -56.332031 C 60.398438 -55.394531 60.710938 -54.765625 60.710938 -54.453125 C 60.710938 -54.140625 60.710938 -53.828125 60.710938 -53.515625 C 60.710938 -53.203125 60.710938 -52.890625 60.710938 -52.574219 C 61.652344 -53.828125 62.277344 -55.078125 62.589844 -56.644531 C 62.902344 -58.210938 63.214844 -59.773438 63.53125 -61.339844 C 62.277344 -59.773438 61.339844 -58.523438 60.710938 -57.894531 C 61.652344 -60.710938 62.277344 -63.53125 62.902344 -66.03125 C 63.53125 -68.535156 64.15625 -71.351562 65.09375 -74.167969 L 64.46875 -74.167969 C 64.78125 -75.734375 65.40625 -76.984375 66.03125 -78.238281 C 66.660156 -79.488281 67.285156 -80.742188 67.597656 -82.304688 C 67.597656 -82.621094 67.285156 -83.558594 66.972656 -84.808594 C 67.285156 -84.496094 67.285156 -84.183594 67.285156 -83.871094 C 67.597656 -84.183594 67.910156 -84.808594 68.222656 -85.75 L 68.222656 -86.375 C 68.222656 -87 68.222656 -87.625 68.535156 -88.253906 C 68.847656 -88.878906 69.164062 -89.503906 69.476562 -90.128906 L 71.351562 -92.945312 C 72.292969 -94.199219 73.230469 -96.078125 74.167969 -98.265625 L 74.167969 -98.894531 L 74.796875 -98.578125 L 74.796875 -99.207031 C 74.796875 -98.894531 75.109375 -98.894531 75.734375 -99.519531 C 76.359375 -100.144531 76.984375 -101.082031 77.613281 -102.335938 C 78.238281 -103.585938 78.863281 -104.839844 79.488281 -106.402344 C 80.117188 -107.96875 80.429688 -109.21875 80.429688 -110.472656 L 80.117188 -110.785156 C 81.054688 -110.785156 81.367188 -110.785156 81.367188 -111.097656 L 81.367188 -112.035156 C 81.679688 -112.664062 82.304688 -113.914062 83.558594 -115.792969 C 84.808594 -117.671875 85.4375 -118.921875 85.4375 -119.546875 C 85.4375 -119.859375 85.4375 -120.171875 85.125 -120.488281 C 84.808594 -120.800781 84.808594 -121.113281 84.808594 -121.425781 C 85.125 -122.363281 85.75 -123.304688 87 -124.554688 C 88.253906 -125.808594 88.878906 -126.746094 88.878906 -127.683594 L 88.878906 -128.9375 C 88.878906 -128.625 88.878906 -128.625 88.878906 -128.625 C 88.878906 -128.625 88.878906 -128.625 88.878906 -128.308594 C 88.878906 -128.9375 88.878906 -129.5625 88.566406 -129.875 C 88.878906 -129.5625 89.191406 -129.5625 89.503906 -129.5625 C 90.441406 -129.5625 91.070312 -130.5 91.695312 -132.066406 C 92.320312 -133.628906 92.632812 -134.882812 92.632812 -135.820312 C 92.632812 -136.132812 92.632812 -136.449219 92.632812 -136.761719 C 92.632812 -137.074219 92.632812 -137.386719 92.632812 -137.699219 C 92.632812 -138.636719 92.945312 -138.949219 93.261719 -138.949219 C 92.945312 -139.265625 92.945312 -139.578125 92.945312 -139.890625 C 92.945312 -141.453125 93.261719 -143.332031 93.886719 -145.210938 C 94.511719 -147.085938 94.824219 -148.964844 94.824219 -150.84375 L 94.824219 -150.53125 C 94.511719 -151.15625 94.511719 -151.78125 94.511719 -152.40625 C 94.511719 -153.035156 94.511719 -153.660156 94.199219 -154.285156 C 94.511719 -154.597656 94.824219 -155.222656 94.824219 -156.164062 L 94.824219 -158.980469 C 94.511719 -158.667969 94.199219 -158.355469 93.886719 -158.039062 C 94.199219 -158.355469 94.199219 -158.980469 94.199219 -159.917969 C 93.886719 -161.171875 93.261719 -162.734375 92.632812 -164.300781 C 92.007812 -165.863281 91.695312 -167.429688 91.695312 -168.996094 C 91.695312 -169.621094 91.695312 -170.246094 92.007812 -170.558594 C 91.695312 -170.246094 91.382812 -169.933594 91.070312 -169.933594 C 90.757812 -169.933594 90.441406 -169.621094 90.128906 -169.308594 C 89.191406 -170.246094 88.878906 -171.496094 88.878906 -173.0625 L 88.878906 -174 C 88.878906 -174.941406 88.253906 -175.878906 86.6875 -176.503906 C 85.125 -177.132812 84.183594 -177.757812 83.871094 -178.695312 C 83.871094 -178.382812 83.558594 -178.382812 82.933594 -178.695312 C 82.304688 -179.007812 81.367188 -179.320312 80.429688 -179.949219 C 79.488281 -180.574219 78.550781 -181.199219 77.613281 -181.824219 C 76.671875 -182.453125 75.734375 -182.765625 75.109375 -182.765625 L 74.167969 -182.765625 C 73.542969 -182.765625 72.917969 -183.078125 72.605469 -183.390625 C 71.039062 -182.765625 70.414062 -182.136719 70.414062 -181.511719 L 70.414062 -178.070312 C 69.476562 -178.382812 68.222656 -178.695312 66.347656 -179.320312 C 64.46875 -179.949219 62.902344 -180.261719 61.652344 -180.261719 C 60.398438 -180.261719 59.460938 -179.949219 58.835938 -179.320312 C 58.210938 -178.695312 57.582031 -178.070312 56.957031 -177.132812 C 56.332031 -176.191406 56.019531 -175.566406 55.707031 -174.941406 C 55.394531 -174.316406 54.765625 -174 54.140625 -173.6875 C 54.140625 -168.367188 52.574219 -162.734375 49.757812 -157.101562 C 46.941406 -151.46875 44.125 -145.210938 41.308594 -138.636719 C 38.179688 -132.378906 35.988281 -125.179688 34.738281 -117.355469 C 33.484375 -109.535156 31.609375 -102.023438 28.792969 -95.136719 L 29.417969 -95.136719 C 29.105469 -94.199219 29.105469 -93.261719 29.105469 -92.320312 C 29.105469 -91.382812 28.480469 -90.441406 27.539062 -89.816406 C 27.851562 -89.503906 28.164062 -89.503906 28.480469 -89.503906 C 27.539062 -86.6875 26.601562 -83.558594 25.660156 -80.117188 C 24.722656 -76.671875 23.785156 -73.542969 22.84375 -70.414062 L 22.53125 -70.414062 C 22.21875 -70.414062 21.90625 -70.414062 21.90625 -70.101562 C 21.90625 -69.789062 21.90625 -69.476562 21.90625 -69.476562 C 21.90625 -69.476562 21.90625 -69.164062 21.90625 -68.847656 C 21.90625 -67.597656 21.28125 -66.660156 20.027344 -66.03125 L 20.027344 -68.847656 L 18.464844 -64.78125 C 17.523438 -61.964844 16.585938 -58.835938 15.648438 -55.394531 C 14.707031 -51.949219 13.769531 -48.195312 12.832031 -44.4375 C 11.890625 -40.683594 11.265625 -37.554688 11.265625 -35.050781 L 11.265625 -34.113281 C 11.265625 -33.484375 11.265625 -32.859375 10.953125 -32.234375 C 10.640625 -31.609375 10.640625 -30.980469 10.640625 -30.355469 L 10.640625 -20.65625 C 10.640625 -18.464844 10.640625 -16.585938 10.953125 -15.023438 C 11.265625 -13.457031 11.578125 -12.519531 12.207031 -12.519531 C 14.082031 -7.824219 16.273438 -4.382812 18.777344 -2.503906 C 21.28125 -0.625 24.410156 0.9375 28.480469 1.878906 C 31.609375 1.878906 34.113281 1.566406 36.300781 0.9375 C 38.492188 0.3125 40.683594 0 43.1875 0 Z M 95.449219 -62.277344 C 95.136719 -62.589844 95.136719 -62.902344 95.136719 -63.214844 L 95.449219 -63.53125 C 95.449219 -63.214844 95.449219 -63.214844 95.449219 -63.214844 C 95.449219 -63.214844 95.449219 -63.214844 95.449219 -62.902344 L 96.703125 -64.15625 L 95.449219 -64.15625 C 95.761719 -64.46875 96.078125 -65.40625 96.703125 -66.972656 C 97.328125 -68.535156 98.265625 -69.164062 99.519531 -69.164062 L 100.144531 -69.164062 C 99.207031 -66.972656 97.953125 -64.78125 96.703125 -62.902344 C 95.449219 -61.027344 93.886719 -59.148438 92.320312 -57.269531 L 92.007812 -57.582031 C 92.320312 -58.523438 92.632812 -59.148438 93.261719 -59.773438 C 93.886719 -60.398438 94.511719 -61.027344 95.136719 -61.964844 Z M 73.855469 -101.398438 C 74.167969 -102.335938 74.484375 -103.273438 74.796875 -104.527344 C 75.109375 -103.585938 75.421875 -102.960938 75.421875 -102.648438 C 75.421875 -102.023438 74.796875 -101.398438 73.855469 -101.082031 Z M 102.648438 -65.40625 C 102.335938 -65.09375 102.023438 -64.15625 101.710938 -62.902344 C 101.398438 -63.214844 101.082031 -63.214844 101.082031 -63.214844 C 101.082031 -63.214844 100.769531 -63.214844 100.457031 -63.53125 C 100.457031 -64.46875 100.457031 -64.78125 100.769531 -64.78125 C 101.082031 -64.78125 101.398438 -65.09375 102.023438 -65.40625 Z M 106.71875 -70.726562 C 107.03125 -71.039062 107.03125 -71.351562 107.03125 -71.980469 C 107.03125 -72.605469 107.03125 -73.230469 107.34375 -73.855469 C 107.65625 -73.542969 107.65625 -73.230469 107.65625 -72.605469 C 107.65625 -71.980469 107.34375 -71.351562 106.71875 -70.726562 Z M 124.554688 -105.464844 C 125.492188 -106.71875 126.121094 -107.96875 126.746094 -109.21875 C 127.371094 -110.472656 127.996094 -111.722656 128.625 -112.976562 C 128.625 -111.410156 128.308594 -109.847656 127.996094 -108.28125 C 127.683594 -106.71875 127.371094 -105.152344 127.058594 -103.585938 C 127.996094 -104.527344 128.9375 -105.464844 129.875 -106.71875 C 130.8125 -107.96875 131.441406 -109.21875 131.441406 -110.785156 C 131.441406 -111.097656 131.128906 -111.410156 130.5 -111.410156 C 129.875 -111.410156 129.5625 -111.410156 129.25 -111.410156 C 129.5625 -112.351562 129.875 -113.289062 130.5 -113.914062 C 131.128906 -114.539062 131.441406 -115.167969 131.441406 -116.105469 C 131.128906 -115.792969 130.8125 -115.792969 130.8125 -115.792969 C 130.8125 -115.792969 130.5 -115.792969 130.1875 -115.480469 C 130.8125 -117.042969 131.753906 -118.609375 133.003906 -120.171875 C 134.257812 -121.738281 135.507812 -123.304688 136.449219 -124.867188 C 135.507812 -123.929688 134.570312 -122.992188 133.628906 -121.738281 L 131.128906 -117.984375 L 129.875 -117.355469 C 129.25 -117.042969 128.308594 -116.417969 127.371094 -115.480469 C 126.433594 -114.539062 125.492188 -113.289062 124.554688 -111.722656 C 123.617188 -110.160156 123.304688 -108.59375 123.304688 -106.71875 C 123.929688 -106.71875 124.242188 -106.402344 124.242188 -106.089844 C 124.242188 -105.777344 124.242188 -105.464844 124.242188 -105.152344 C 124.242188 -104.839844 124.242188 -104.527344 124.242188 -104.214844 Z M 146.148438 -138.636719 C 145.523438 -138.324219 144.898438 -138.011719 144.585938 -137.386719 C 144.269531 -136.761719 143.957031 -136.132812 143.644531 -135.820312 C 143.957031 -135.507812 144.269531 -135.195312 144.585938 -134.882812 C 144.269531 -133.945312 143.644531 -133.316406 143.019531 -132.691406 C 142.394531 -132.066406 141.765625 -131.441406 141.453125 -130.5 C 141.765625 -129.875 141.765625 -129.25 141.765625 -128.308594 L 142.394531 -128.9375 L 143.019531 -127.683594 L 143.644531 -128.9375 C 143.957031 -129.25 144.269531 -129.5625 144.585938 -129.875 L 144.585938 -128.9375 C 145.210938 -129.875 145.835938 -130.8125 146.148438 -131.441406 C 146.460938 -132.066406 147.085938 -133.003906 147.714844 -133.945312 C 146.773438 -133.316406 145.835938 -132.378906 145.210938 -131.441406 C 144.585938 -130.5 143.957031 -129.875 143.332031 -129.875 C 143.019531 -129.875 142.707031 -130.1875 142.394531 -130.5 C 143.332031 -130.8125 144.269531 -131.753906 145.210938 -133.628906 C 146.148438 -135.507812 146.460938 -136.761719 146.460938 -137.699219 L 146.460938 -138.324219 C 146.148438 -138.011719 145.835938 -137.386719 145.210938 -136.449219 C 144.585938 -135.507812 143.957031 -134.882812 143.644531 -134.882812 C 143.644531 -135.507812 143.644531 -136.132812 143.957031 -136.449219 C 144.269531 -136.761719 144.585938 -137.386719 144.898438 -138.011719 Z M 152.09375 -158.039062 C 152.40625 -157.726562 152.722656 -157.726562 153.035156 -157.726562 C 153.972656 -159.292969 154.910156 -160.859375 155.851562 -162.421875 C 156.789062 -163.988281 157.726562 -165.550781 158.667969 -167.117188 L 158.355469 -167.429688 C 157.414062 -165.863281 156.476562 -164.300781 155.539062 -162.734375 C 154.597656 -161.171875 153.660156 -159.605469 152.722656 -158.039062 Z M 123.617188 -103.585938 C 123.304688 -103.585938 123.304688 -103.585938 123.304688 -103.585938 C 123.304688 -103.585938 123.304688 -103.585938 122.992188 -103.585938 C 122.675781 -103.585938 122.363281 -102.960938 121.738281 -101.710938 C 121.113281 -100.457031 120.488281 -99.519531 120.171875 -98.894531 C 121.738281 -99.832031 122.992188 -101.398438 123.617188 -103.273438 Z M 142.394531 -140.515625 L 142.394531 -140.828125 C 142.082031 -140.203125 142.082031 -139.265625 142.082031 -137.699219 L 142.394531 -137.699219 L 142.394531 -138.011719 C 142.394531 -138.949219 142.707031 -139.890625 143.332031 -141.140625 C 143.957031 -142.394531 144.585938 -143.332031 144.898438 -143.957031 C 144.898438 -144.269531 144.898438 -144.269531 144.585938 -144.269531 L 143.332031 -142.394531 Z M 92.632812 -167.117188 L 92.945312 -167.742188 L 92.945312 -168.054688 C 92.007812 -168.367188 91.070312 -168.679688 90.128906 -168.996094 C 89.191406 -169.308594 88.253906 -169.621094 87.3125 -169.933594 C 88.253906 -168.996094 89.191406 -168.367188 90.128906 -168.054688 C 91.070312 -167.742188 92.007812 -167.429688 92.945312 -167.117188 Z M 136.449219 -120.800781 C 135.820312 -120.800781 135.195312 -120.488281 134.570312 -119.546875 C 133.945312 -118.609375 133.628906 -117.671875 133.628906 -116.730469 C 133.945312 -117.671875 134.257812 -118.296875 134.882812 -118.921875 C 135.507812 -119.546875 135.820312 -120.171875 136.132812 -120.800781 Z M 61.964844 -60.710938 C 61.027344 -58.835938 60.710938 -57.582031 60.710938 -57.269531 L 61.027344 -56.644531 L 62.902344 -60.398438 C 62.589844 -60.710938 62.277344 -60.710938 61.964844 -60.710938 Z M 119.859375 -98.578125 C 118.609375 -98.265625 117.984375 -97.328125 117.984375 -95.761719 C 117.984375 -95.449219 117.984375 -95.136719 118.296875 -94.824219 C 118.609375 -95.761719 119.234375 -97.015625 120.171875 -98.578125 Z M 143.332031 -133.945312 C 141.765625 -133.628906 141.140625 -133.003906 141.140625 -132.066406 L 141.140625 -131.441406 C 141.453125 -131.753906 141.765625 -132.066406 142.082031 -132.691406 C 142.394531 -133.316406 142.707031 -133.628906 143.019531 -133.945312 Z M 136.132812 -124.867188 C 136.132812 -124.554688 136.132812 -124.554688 136.449219 -124.554688 C 137.386719 -124.867188 137.699219 -125.492188 137.699219 -126.121094 C 137.699219 -126.746094 137.699219 -127.371094 138.011719 -127.683594 L 137.699219 -127.996094 C 136.761719 -126.433594 136.132812 -125.179688 135.820312 -124.554688 Z M 144.898438 -137.386719 C 145.210938 -138.011719 145.523438 -138.636719 145.835938 -139.265625 C 146.148438 -139.890625 146.460938 -140.515625 146.773438 -141.140625 C 146.460938 -141.140625 146.148438 -141.140625 146.148438 -141.140625 C 146.148438 -141.140625 145.835938 -141.140625 145.523438 -141.140625 C 145.210938 -140.515625 144.898438 -139.890625 144.898438 -139.265625 C 144.898438 -138.636719 144.585938 -138.011719 144.269531 -137.386719 Z M 158.667969 -167.742188 C 159.605469 -168.054688 160.230469 -168.679688 160.230469 -169.308594 L 160.230469 -169.933594 C 159.292969 -168.996094 158.667969 -168.367188 158.355469 -167.742188 Z M 95.449219 -164.613281 C 95.761719 -164.613281 95.761719 -164.613281 95.761719 -164.925781 C 95.449219 -165.238281 95.136719 -165.550781 94.824219 -165.550781 C 94.511719 -165.550781 94.199219 -165.863281 93.886719 -166.179688 L 93.574219 -165.550781 C 93.886719 -165.238281 94.199219 -164.925781 94.511719 -164.613281 C 94.824219 -164.300781 95.136719 -163.988281 95.449219 -163.675781 Z M 118.921875 -100.144531 C 118.609375 -100.144531 118.296875 -100.144531 117.984375 -100.457031 L 117.355469 -99.207031 L 116.730469 -97.953125 C 117.042969 -98.265625 117.671875 -98.894531 118.609375 -100.144531 Z M 118.921875 -100.144531" transform="translate(115.989 251.455)"/></g></g></g><g fill="#FF1616"><g><g><path d="M 27.226562 -4.382812 C 27.226562 -3.441406 27.851562 -2.191406 29.105469 -0.625 C 30.355469 0.9375 31.609375 2.503906 33.171875 3.753906 C 34.738281 5.007812 36.617188 6.257812 38.492188 7.199219 C 40.371094 8.136719 41.9375 8.761719 43.5 8.761719 C 45.691406 8.449219 47.882812 7.511719 50.386719 6.257812 C 52.890625 5.007812 54.140625 2.816406 54.140625 -0.3125 C 54.140625 -1.878906 53.828125 -3.128906 52.890625 -4.070312 C 51.011719 -5.945312 49.445312 -7.511719 48.507812 -8.761719 C 47.570312 -10.015625 46.628906 -10.953125 45.691406 -11.890625 C 44.753906 -12.832031 43.5 -13.457031 42.25 -13.769531 C 40.996094 -14.082031 39.117188 -14.394531 36.929688 -14.394531 C 36.617188 -14.394531 36.300781 -14.394531 35.675781 -14.394531 C 35.050781 -14.394531 34.425781 -14.082031 33.484375 -13.457031 C 32.546875 -12.832031 31.609375 -11.890625 30.667969 -10.328125 C 29.730469 -8.761719 28.792969 -6.257812 27.851562 -2.816406 Z M 27.226562 -4.382812" transform="translate(297.188 251.455)"/></g></g></g></svg>